<svg id="Capa_1" data-name="Capa 1" xmlns="http://www.w3.org/2000/svg" viewBox="0 0 560.22 120.33"><defs><style>.cls-1{fill:#fdfdfd;}.cls-2{fill:#12aa14;}.cls-3{fill:#155212;}.cls-4{fill:#0c0c0c;}.cls-5{fill:#191919;}.cls-6{fill:#f7f9f8;}</style></defs><title>logo2</title><path class="cls-1" d="M26.88,85.11c-.37,5.94-.3,11.89,1.3,17.64,6.92,24.87,22.91,40.5,48.45,44.79,18,3,35-.74,49.24-13.15,16.35-14.21,22.82-32.19,20.49-53.55-.32-6.26-2.28-12.13-4.7-17.78-4.22-9.84-11.22-17.53-19.74-23.86C100.14,23,62,23.28,40.37,49.65,31.89,60,27,71.63,26.88,85.11Zm237,17.58c-.58,3.25.63,4,3.09,3.65,2.93-.44,2.07-2.12,1.62-3.89a20.79,20.79,0,0,1-.54-4.16,214.74,214.74,0,0,1,.34-22.55,34.5,34.5,0,0,0,.07-6c-.21-2-1.74-2.15-3.41-1.73-1.46.36-2.65.65-1.91,2.73.91,2.58.57,5.35.76,8,.15,2.21-.55,2.37-2.51,1.85-7.56-2-14.54,1.09-17.46,7.52-3.68,8.09.38,17.06,8.39,18.5C256.57,107.41,260.21,106.06,263.89,102.69ZM510.65,82.91c0-4.33,0-8.24,0-12.14,0-1.88-.59-3.22-2.83-2.82-1.9.35-3.7.77-2.35,3.44a5.86,5.86,0,0,1,.26,2.08c.79,9.52.31,19-.09,28.57-.05,1-.56,2.25.89,2.85,6.65,2.74,14.86,3.37,20.41-3.34a13.74,13.74,0,0,0,2.38-13.87c-1.42-4.18-4.54-6.52-8.83-7.24C517,79.85,513.83,81.19,510.65,82.91Zm56.69-.36c0-4,0-7.94,0-11.91,0-2.22-1-3.12-3.22-2.6-1.82.41-2.45.88-2.08,3.18,1.49,9,.86,18.21.45,27.32-.3,6.71-.36,6.7,6.34,8,7.55,1.42,14.49-2.08,17-8.61,2-5.24,1-11.1-2.61-14.53s-8.62-4-14.26-1.3C568.5,82.3,568.08,82.9,567.34,82.55ZM421.43,75.94h.34c0-1.6,0-3.2,0-4.81,0-1.18.08-2.52-1.34-3.06a4.39,4.39,0,0,0-4,.76c-1.21.78.1,1.76.1,2.67,0,1.19.41,2.38.43,3.57.1,9.12.36,18.24-.35,27.35-.07.86-.42,1.82.72,2.34,8.18,3.69,17.85,2.88,22.27-5.71,2.49-4.85,2.51-10-1-14.47-3-3.88-7.08-4.85-11.84-3.88-1.85.38-4,2.78-5.15,1.36C420.62,80.82,421.43,78,421.43,75.94Zm65,3.72c-8.73,0-14.64,5.67-14.65,14,0,7.91,5.67,13.51,13.73,13.54a14.63,14.63,0,0,0,14.64-14.44C500.19,85.11,494.49,79.65,486.44,79.66Zm-134.93,0c-8.7,0-14.68,5.73-14.68,14,0,7.89,5.72,13.52,13.75,13.54a14.52,14.52,0,0,0,14.59-14.44C365.2,85,359.61,79.65,351.51,79.66ZM554.72,93.12c0-1.41,0-2.81,0-4.22-.07-3.66-1.09-6.88-4.91-8.16-4.26-1.43-8.52-1.4-12.35,1.35a2.5,2.5,0,0,0-.64,3.73c1.26,1.7,1.93,0,2.76-.66,3.65-3.1,9.64-2,10.85,2,.61,2,.39,3-2.09,2.73-3.42-.31-6.83-.12-9.92,1.74a7.92,7.92,0,0,0-4,8.93c.75,3.5,3.37,5.76,7.22,6.21a10.84,10.84,0,0,0,7.18-1.75c1-.65,1.72-1.51,2.55.45.68,1.62,2.39,1,3.71.38.77-.33,1.39-.61.86-1.76C554.29,100.6,554.6,96.83,554.72,93.12Zm-93.43,10.93c.84.3.68,1.24,1.19,1.7,1.17,1.07,2.41.66,3.63.1.66-.29,1.36-.59.94-1.53-2.15-4.71-1.15-9.68-1.22-14.56,0-3.59-.6-7.05-4.19-8.69a13.33,13.33,0,0,0-12.71.65c-1.48.87-2.33,2.47-1.07,4.1,1.46,1.9,2.13-.24,3-.89,3.66-2.8,9.66-1.61,10.67,2.21.46,1.76.46,3-2.15,2.76-3.73-.38-7.43-.07-10.67,2.22a7.86,7.86,0,0,0-3.26,8.46c.59,3.17,2.7,5,5.78,5.88C455,107.51,458.3,106.26,461.29,104.05ZM294.55,93.81c0-1.5,0-3,0-4.51,0-3.63-.83-7-4.55-8.4-4.31-1.68-8.68-1.58-12.64,1.11a2.51,2.51,0,0,0-.61,3.94c1.4,1.65,2-.28,2.73-.9,3.45-2.79,9.36-1.9,10.66,1.64.89,2.43.35,3.23-2.19,3.14-3.55-.12-7.05,0-10.15,2a8.1,8.1,0,0,0-3.67,8.59,7.84,7.84,0,0,0,6.59,6.19,10.58,10.58,0,0,0,8-1.74c1-.66,1.6-1.31,2.33.44s2.32,1,3.68.56c1.6-.56,1.06-1.45.63-2.58C294.2,100.27,294.49,97,294.55,93.81Zm76.39.42c0,3.4-.07,6.82,0,10.22.06,2.24,1.72,2.2,3.27,1.85,1-.23,2.75-.09,2.21-2-1.32-4.64-.88-9.35-.74-14.06.13-4.34.9-5.26,5.11-6.22,4.58-1.05,7.13.62,8,5.21.64,3.4.23,6.81.08,10.21a43.59,43.59,0,0,0,0,5.11c.16,1.92,1.6,2.16,3.1,1.78,1-.25,3.05-.08,2.48-1.74-1.58-4.65-.72-9.37-.93-14-.42-9.06-6.82-13-15.13-9.22-1.35.62-2.56,1.85-3.73-.49-.61-1.21-2.29-1-3.6-.63-.85.23-.62.9-.46,1.46C371.74,85.79,371.21,90,370.94,94.23Zm-156.59.56c0,3.2,0,6.41,0,9.62,0,2,1.44,2.27,3,1.94,1.09-.24,3.06.06,2.52-2-1.21-4.56-.72-9.18-.69-13.78s1.46-6.21,6.21-6.74c3.94-.43,6.15,1.11,6.86,5a24.13,24.13,0,0,1,.24,4.5c0,3.62-.11,7.23-.16,10.84,0,1.9,1.12,2.54,2.76,2.18,1.09-.24,3.31,0,2.74-1.8-1.45-4.66-.69-9.38-.94-14.06-.5-9.16-6.79-13-15.09-9.14-1.49.69-2.56,1.46-3.73-.59-.67-1.18-2.37-1.06-3.61-.55-1.57.65-.2,1.75-.07,2.54A41.45,41.45,0,0,1,214.35,94.79ZM202,103.13a11.4,11.4,0,0,0,.42,2.14c.82,1.83,2.33,1.19,3.63.79.69-.21,1.82-.21,1.38-1.73-1.79-6.11-.65-12.37-.77-18.57a23,23,0,0,0-.15-3.9c-.36-2-1.93-1.77-3.32-1.38-1.2.32-2.51.49-1.84,2.56,1.46,4.47.94,9.15.85,13.76-.07,3.14-3.52,6.1-7.22,6.34-3.34.22-4.94-1.25-5.6-5.25a41.49,41.49,0,0,1-.05-9.32c.1-1.91.23-3.81.25-5.72,0-2.09-1.09-2.89-3.11-2.5-1.8.35-2.9.94-2,3.19.76,1.86.47,4,.45,6,0,2.92-.24,5.84-.11,8.74.25,5.8,3.88,8.92,9.68,8.65C197.35,106.76,199.59,105.35,202,103.13Zm-27.4-7.93h-.34c0-2.6.12-5.22,0-7.81-.12-2,.44-2.9,2.64-2.75,1.29.08,3.58,1.55,3.66-1.31s-2.39-1.55-3.83-1.86a4.41,4.41,0,0,0-1.2,0c-.72.07-1.16-.17-1.12-1,.11-2.29-.06-4.67,1.12-6.75.89-1.56,2.27-2.3,4.06-1.4,1,.49,1.81,1.33,2.9.19a2.41,2.41,0,0,0,.74-2.45,2.91,2.91,0,0,0-2.73-2,8.12,8.12,0,0,0-9,4.6A17.43,17.43,0,0,0,169.77,80c-.05,1,0,2.07-1.5,1.94-1.14-.1-2.32-.15-2.22,1.56s1.21,1.64,2.36,1.56,1.42.3,1.4,1.35c-.1,5.6.68,11.3-.84,16.77-.75,2.7.72,2.83,2.41,3.17,1.93.39,3.16-.24,3.17-2.41Zm138.86,11.7c2.14,0,4.24-.13,6-1.42a2.62,2.62,0,0,0,.76-3.73c-.86-1.52-1.72,0-2.47.26-3.77,1.51-8.23.71-10.56-2s-2.61-8.12-.42-11.6A8.61,8.61,0,0,1,317,84.64c1.62.54,2.5.39,2.92-1.22a2.36,2.36,0,0,0-1.79-3.23,11.93,11.93,0,0,0-6.25.1c-7.13,1.56-12,8.75-11.21,16.35C301.29,102.73,306.44,106.87,313.41,106.9Zm16.91-16c.13-2.8.34-5.6.36-8.39,0-2.08-1.47-2.55-3.1-2.13-1.11.28-3.26-.05-2.65,2.22,1.34,4.94.9,9.92.64,14.91a56.64,56.64,0,0,0-.13,6.89c.19,2.58,2.18,2.1,3.87,1.83s2.37-.82,1.75-2.82C329.81,99.37,330.22,95.11,330.32,90.92ZM178.87,128.64c.12-1.9.28-3.8.35-5.71,0-1.06.34-2.41-1.4-2.4s-1.33,1.22-1.11,2.33c.47,2.42.56,4.49-3.07,3.5a5.2,5.2,0,0,0-2.91.53,7,7,0,0,0-3.8,8.53,5.65,5.65,0,0,0,6.93,3.77c1.31-.36,2.41-1.49,4-.11.6.53,1.84-.28,1.47-1.73C178.55,134.48,179,131.55,178.87,128.64Zm244.88.37c0-2.21,0-4.41,0-6.61,0-1.11,0-2-1.57-1.86s-1.07,1.12-1,2c.29,2.38,1,5-3.17,3.82a4.73,4.73,0,0,0-2.62.49,7,7,0,0,0-3.86,8.73,5.74,5.74,0,0,0,6.74,3.68c1.35-.33,2.63-1.9,4.15-.13a1.13,1.13,0,0,0,1.48-1.43C423.24,134.83,423.6,131.91,423.75,129Zm62.8,0c0-2,0-4,0-6,0-1,.49-2.43-1.32-2.42s-1.3,1.35-1.16,2.37c.32,2.26.92,4.57-2.93,3.46a5.35,5.35,0,0,0-3.18.6,7,7,0,0,0-3.48,8.91,5.73,5.73,0,0,0,7.22,3.16c1.1-.38,2.06-1.5,3.33,0a1.16,1.16,0,0,0,1.7-1.41C486,134.77,486.43,131.86,486.55,129Zm-241.24,6.19H245c0,2.71,0,5.42,0,8.13,0,.93.27,1.59,1.37,1.5s1.4-.62,1.19-1.62a11.9,11.9,0,0,1-.13-1.2c-.19-1.94-.68-3.74,2.67-2.85,2.58.68,4.91-.79,6.32-3.13a6.22,6.22,0,0,0,.12-6.59,5.68,5.68,0,0,0-5.88-2.82c-1.58.14-3.06,1.25-4.81.09-.8-.52-.93.49-.88,1.28C245.14,130.34,245.21,132.75,245.31,135.15Zm80.14-2.66c0-3.73-2.67-6.32-6.53-6.36-4.22,0-7.16,2.74-7.18,6.81s2.62,6.54,6.64,6.53A6.84,6.84,0,0,0,325.45,132.49Zm251.94,7a7.08,7.08,0,0,0,7.14-7,6.39,6.39,0,0,0-6.66-6.33c-4.23,0-7.16,2.77-7.15,6.83S573.36,139.49,577.39,139.47Zm-286.14-6.42h.17c0-.6,0-1.21,0-1.81a5,5,0,0,0-7.84-4.33c-.71.43-1.44,1-1,1.91.62,1.36,1.24.22,1.81-.14a3.72,3.72,0,0,1,2.59-.59c1.16.19,2.24.73,2.2,2-.05,1.49-1.35.64-2.08.83s-1.8.25-2.63.55c-2.48.87-3.61,3-2.89,5.15a4.21,4.21,0,0,0,5.41,2.5c1.19-.35,2.19-1.11,3.55-.12.49.36,1.71,0,1.27-1.54A26,26,0,0,1,291.25,133.05Zm-49-.44a6.2,6.2,0,0,0-6.41-6.48c-4.23-.1-7.24,2.66-7.31,6.69a6.2,6.2,0,0,0,6.53,6.65A6.83,6.83,0,0,0,242.29,132.61Zm-22.68,6.86a6.92,6.92,0,0,0,7.16-6.93,6.26,6.26,0,0,0-6.52-6.41c-4.22-.08-7.18,2.69-7.2,6.76S215.61,139.46,219.61,139.47Zm170-3.18c-1.31-3.11-2.42-5.78-3.57-8.44-.44-1-1.08-1.87-2.25-.93a1.5,1.5,0,0,0-.14,2.52c1.84,2,2.52,4.74,3.81,7.11a4.14,4.14,0,0,1-.49,5.19c-.69.8-1.41,1.59-.08,2.43s1.82-.33,2.2-1.17q3.15-7,6.14-14c.33-.77,1.25-2-.43-2.4-1.2-.29-1.64.48-1.88,1.69A28.22,28.22,0,0,1,389.59,136.29Zm158.77,3.18a7,7,0,0,0,7.14-7,6.28,6.28,0,0,0-6.57-6.37c-4.23-.06-7.16,2.71-7.18,6.79S544.33,139.46,548.36,139.47Zm-167.59-6.13c0-.88,0-1.68,0-2.48,0-1.8-.51-3.41-2.34-4.15a6.33,6.33,0,0,0-5.77.38c-.74.43-1.27,1.18-.65,2s1.14-.07,1.66-.39a3.6,3.6,0,0,1,3.7-.27,1.85,1.85,0,0,1,1.16,1.92c-.15,1-1.07.52-1.68.63a16,16,0,0,0-3.49.69c-2.05.89-3.11,2.53-2.46,4.83a3.59,3.59,0,0,0,4.64,2.73c1.81-.53,4.09.3,5.07-.52C382,137.52,380.21,135.14,380.77,133.34Zm53.42-2.59a35.5,35.5,0,0,0-4.41.66c-2.86.81-4.06,3-3.17,5.5.72,2,3.15,3,5.57,2.17,1.07-.36,1.95-1.08,3.22-.08.57.46,1.84-.08,1.35-1.45-.74-2.06-.4-4.18-.4-6.27,0-1.79-.19-3.5-2-4.41a6.33,6.33,0,0,0-5.82,0c-.8.39-1.65,1.11-.95,2.14s1.15-.06,1.71-.34C432,127.36,433.34,127.94,434.19,130.75Zm-78.61,5.6c-1.39-3.25-2.56-6-3.75-8.73-.43-1-1.19-1.5-2.11-.75-.65.53-1.35,1.33-.42,2.29,1.95,2,2.57,4.72,3.91,7,1.23,2.13,1.16,4-.48,5.71-.71.77-1.12,1.48-.06,2.2,1.25.84,1.85-.07,2.28-1q3.23-7.26,6.39-14.56c.31-.72.61-1.67-.56-1.93-.95-.2-1.58.11-1.82,1.34C358.42,130.69,357.14,133.2,355.58,136.35Zm-27.27-4h-.14v5.42c0,1,.45,1.54,1.48,1.37s1.3-.57,1.17-1.65c-.22-1.89-.08-3.81-.27-5.7-.27-2.58,1.21-3.48,3.35-3.54,2.43-.07,3,1.67,2.94,3.67s0,3.82-.06,5.72c0,1.13.47,1.7,1.67,1.45,1-.2,1.08-.69,1-1.7-.26-2.08-.12-4.21-.27-6.31-.29-3.87-2.69-5.52-6.42-4.49-.67.19-1.58.8-2,.56-3.78-2.51-2.45.57-2.45,2.18C328.31,130.36,328.31,131.36,328.31,132.37Zm80.14.95h.06V128.2c0-1-.26-1.79-1.53-1.67s-1.19.78-1.05,1.86a38.71,38.71,0,0,1,.2,6c-.07,2.13-1.66,2.9-3.46,3-2,.17-2.54-1.3-2.57-3,0-2.2,0-4.41.08-6.62,0-1-.48-1.46-1.5-1.33-.82.11-1.15.43-1.08,1.38.16,2.3.07,4.61.19,6.91.2,3.79,3,5.53,6.47,4.13.54-.22,1.28-.89,1.53-.73,4.46,2.92,2.46-1,2.65-2.49A21.52,21.52,0,0,0,408.45,133.32Zm-221.38,0a15.34,15.34,0,0,0,2.27,0c1.39-.2,2.93-.34,3.28-2.09a3.8,3.8,0,0,0-2.08-4.28,5.41,5.41,0,0,0-3.79-.59c-3.56.68-5.61,4-5,8,.51,3.36,3.66,5.49,7.42,4.9,1.11-.17,2.92-.24,2.6-1.79-.38-1.82-1.75-.11-2.68-.18a15.1,15.1,0,0,1-1.78,0c-1.71-.33-3.31-1.24-3.17-3.06C184.3,132,186.28,134,187.07,133.31Zm307.23,0a23.54,23.54,0,0,0,2.53,0c1.43-.18,2.91-.51,3.22-2.19a3.8,3.8,0,0,0-1.94-4.08,5.38,5.38,0,0,0-4-.67c-3.57.72-5.51,3.94-4.88,8.07.5,3.31,3.35,5.32,7.1,4.86,1.17-.14,3.15,0,2.77-1.87s-1.71,0-2.63-.1c-.67-.11-1.39,0-2.06-.1-1.76-.36-3.18-1.58-3-3.25S493.44,133.86,494.3,133.3Zm-229.83,0a23.54,23.54,0,0,0,2.53,0c1.43-.17,2.9-.53,3.19-2.21a3.79,3.79,0,0,0-1.94-4.06,5.46,5.46,0,0,0-4.05-.67c-3.44.71-5.48,3.91-4.93,7.77.5,3.54,3.3,5.62,7.16,5.17,1.17-.14,3.13,0,2.8-1.85s-1.71,0-2.61-.15c-.68-.09-1.4.06-2.06-.07-1.75-.35-3.2-1.53-3-3.22S263.62,133.86,264.47,133.3Zm256.29-.54c0-.5,0-1,0-1.51.06-1.79-.21-3.48-2-4.39a6.39,6.39,0,0,0-5.82,0c-.74.35-1.46,1-1,1.91.62,1.29,1.26.16,1.86-.18a3.79,3.79,0,0,1,2.6-.55c1.21.2,2.23.9,2.2,2.1,0,1.39-1.36.59-2.11.78s-1.8.24-2.64.53c-2.5.87-3.55,2.83-2.87,5.18a4.22,4.22,0,0,0,5.41,2.49c1.15-.35,2.11-1.21,3.48-.14.55.43,1.82-.15,1.28-1.51C520.53,136,520.79,134.35,520.76,132.76Zm-63.91.28c0-.7,0-1.4,0-2.1.06-1.82-.39-3.42-2.21-4.2a6.26,6.26,0,0,0-5.77.32c-.71.39-1.34,1.1-.74,2s1.17,0,1.69-.33a3.7,3.7,0,0,1,3.16-.51,2.09,2.09,0,0,1,1.73,2.15c-.14,1.14-1.27.48-1.95.63a19.52,19.52,0,0,0-3.2.67,3.85,3.85,0,0,0-2.41,5.12c.65,2.15,2.47,2.72,4.54,2.58,1.52-.11,2.85-1.58,4.61-.32.55.39,1.41-.49,1-1.54A11.11,11.11,0,0,1,456.85,133Zm-155.4-4.5c.7-.12,1.79.81,2.13-.65.25-1-.52-1.49-1.35-1.58a6.8,6.8,0,0,0-6.74,3.07c-1.64,2.41-2,5.07-.25,7.58s4.28,2.77,7,2.27c.85-.16,1.87-.6,1.68-1.76-.24-1.4-1.21-.57-1.86-.39a4,4,0,0,1-4.62-1.23,4.38,4.38,0,0,1-.27-5.09A4,4,0,0,1,301.45,128.54Zm-92.46,0c1.09,0,2.41.86,2.4-.91,0-1.42-1.27-1.34-2.24-1.35a6.87,6.87,0,0,0-4.43,1.6c-2.59,2.08-3.49,6-2,8.67a6.65,6.65,0,0,0,7.36,2.71c.85-.28,1.88-.66,1.67-1.78-.26-1.34-1.23-.54-1.9-.36a4,4,0,0,1-4.62-1.23,4.46,4.46,0,0,1-.26-5.1A3.89,3.89,0,0,1,209,128.5Zm352,.4c0-2.2,0-4.4,0-6.6,0-1.2-.38-1.92-1.76-1.75s-1.11,1-1,2a24,24,0,0,1,.34,3.87c-.05,3.6-.23,7.2-.31,10.8,0,1,.12,2.11,1.58,2s1.35-1.08,1.11-2.18A26.31,26.31,0,0,1,561,128.9ZM349,77.21a19.69,19.69,0,0,0,8-4.1c1.15-1,1.6-2.48.48-3.74s-2.6-.91-3.74.14c-2.06,1.91-4,3.92-6,5.91-.34.33-.7.76-.32,1.31S348.21,77.26,349,77.21Zm111.81,53.42c0,2.1,0,4.2,0,6.3,0,1.06-.22,2.41,1.56,2.22,1.51-.16,1.19-1.24,1-2.24a50.94,50.94,0,0,1-.18-9c.06-2,.14-4,.19-6,0-1.24-.72-1.51-1.79-1.36s-1.19.71-.95,1.69C461.32,125,460.87,127.83,460.78,130.63Zm43.56,8.84a4.61,4.61,0,0,0,3.93-2.62c.87-1.82-.2-3-1.39-4.18-3-2.93-3-3,1-4.38a1,1,0,0,0,.82-1.06,1,1,0,0,0-.86-1,4.93,4.93,0,0,0-4.69,2.1,2.92,2.92,0,0,0,.22,4.09c.6.66,1.33,1.2,2,1.82s1.25,1.42.77,2.38a1.78,1.78,0,0,1-2,.88c-.78-.13-1.75-.48-1.79.76S503.29,139.46,504.34,139.47Zm60.73-8.88c0,2.21,0,4.42,0,6.62,0,1,.06,2.12,1.61,1.9,1.31-.18,1.19-1,1-2-.64-3.49-.32-7-.17-10.51.07-1.6.14-3.21.13-4.82,0-1-.7-1.31-1.65-1.21s-1.33.61-1.06,1.63C565.69,125,565.19,127.79,565.07,130.59Zm-40.33,2.76h-.34c0,1.5,0,3,0,4.5.05,1.16.77,1.51,1.86,1.26s1.27-.77.92-1.73a10.71,10.71,0,0,1-.35-5.35c.28-1.71.84-3.75,3.38-2.77,1,.41,1.28-.11,1.49-.79a1.33,1.33,0,0,0-.76-1.74,2.33,2.33,0,0,0-2.53.37c-.75.57-1.4,1.54-2.09-.13-.22-.54-1.05-.62-1.62-.32-.73.38-.24,1-.21,1.6C524.58,130,524.66,131.65,524.74,133.35Zm-249.59,1.44c-.14-4.59.12-4.88,3.92-5.28a1.2,1.2,0,0,0,1-1,1.45,1.45,0,0,0-.73-1.79,2.16,2.16,0,0,0-2.28.15c-.9.55-1.67,1.86-2.63-.07-.25-.5-1.75-.73-1.64.54.33,3.51-.05,7,0,10.5,0,1.24.81,1.47,1.86,1.23s1.25-.64.88-1.69A11.23,11.23,0,0,1,275.15,134.79Zm258.92-2.41h-.22c0,1.8,0,3.6,0,5.4,0,1,.48,1.53,1.47,1.39s1.59-.42,1.23-1.75a12.13,12.13,0,0,1-.33-5.65c.32-1.54,1-2.95,2.84-2.84.68,0,1.34,1,2-.13a1.39,1.39,0,0,0-.17-1.67,1.81,1.81,0,0,0-2.45-.36c-1.15.76-1.93,1.55-3.19-.06-.56-.71-1.61-.29-1.37,1.18A35.2,35.2,0,0,1,534.07,132.38ZM327.6,76c1.95-.18,3.6-.93,3.78-3.27a2.75,2.75,0,0,0-3-3.28,3.34,3.34,0,0,0-3.74,3.36C324.51,74.73,325.69,75.63,327.6,76Zm-18.79,56c0-1.41,0-2.81,0-4.21a1.1,1.1,0,0,0-1.4-1.16c-.64.1-1.61.08-1.37,1.13.76,3.3.2,6.59.11,9.89,0,1,.43,1.76,1.64,1.6s1.5-.75,1.18-1.87A13,13,0,0,1,308.81,131.9Zm7.46-8,.77,1c1.6.3,2.8-.68,4-1.45.78-.5,1.33-1.34.55-2.24s-1.42-.14-2,.31C318.46,122.31,317.37,123.12,316.27,123.93Zm-7.13-1.29a1.37,1.37,0,0,0-1.6-1.4,1.54,1.54,0,0,0-1.6,1.76c0,1,.6,1.42,1.56,1.36A1.61,1.61,0,0,0,309.14,122.64Z" transform="translate(-26.69 -28.2)"/><path class="cls-2" d="M146.36,80.84c2.33,21.36-4.14,39.34-20.49,53.55-14.28,12.41-31.2,16.17-49.24,13.15-25.54-4.29-41.53-19.92-48.45-44.79-1.6-5.75-1.67-11.7-1.3-17.64l2,0c-.83,16.23,4,30.48,15,42.56,2.82,3.11,6.71,3.66,10.07,1.08,4.12-3.18,7.6-7,8.57-12.36,1.62-8.94,4-17.88,1-27a20.34,20.34,0,0,1-.53-4.17c.23-1.54,1.44-1.75,2.63-1.83,1.57-.1,3.15,0,4.73-.06,1.15.44.62,2.77,2.58,2.3,1.29,0,2.59.14,3.89.11,10.2-.26,20.38-1.35,30.6-1.18,1.13,0,2.44-.46,3.34.73-2.82,2.57-3.46,5.79-3.13,9.47a139.7,139.7,0,0,1,.67,22.22c-.17,2.32.94,4.26,2.06,6.17,3,5.07,7.55,7.54,13.22,8.37a4.34,4.34,0,0,0,4-1.51,58.85,58.85,0,0,0,13.28-19.85c3.81-9.44,4.52-19.23,3.7-29.24Z" transform="translate(-26.69 -28.2)"/><path class="cls-3" d="M146.36,80.84l-1.89,0c-.25-1.15-.27-2.27-2-2.44-11.34-1.13-22.19-.14-31.78,6.81-.9-1.19-2.21-.71-3.34-.73-10.22-.17-20.4.92-30.6,1.18-1.3,0-2.6-.07-3.89-.11,1.4-3.74,2.53-7.62,4.65-11C79,72.19,78.94,70.2,77,68c-4.42-4.95-4.85-10.61-2.13-16.49,2.8-6,3.79-12.41,4.08-19,.07-1.57-.46-1.74-1.65-1.48-2.25.49-4.47,1.16-6.75,1.48-2,.3-2.35,1.28-2,3.08.78,4,1.36,8.11,2.13,12.14a20.29,20.29,0,0,1-4.51,17.69,37.51,37.51,0,0,0-4.78,8c-.85,1.77-.86,3,1.53,3.43,3.71.64,6,3.08,7.36,6.41-1.58,0-3.16,0-4.73.06-1.19.08-2.4.29-2.63,1.83-2.87-3.59-7-4.71-11.2-5.54a3.87,3.87,0,0,0-2.53.8c-5,2.77-9.89,2.63-14.59-.8a18.09,18.09,0,0,0-4.66-2.93c-.67,2.82-1.94,5.45-1.05,8.38l-2,0C27,71.63,31.89,60,40.37,49.65,62,23.28,100.14,23,121.92,39.2c8.52,6.33,15.52,14,19.74,23.86C144.08,68.71,146,74.58,146.36,80.84Zm-24.1-38.61A57,57,0,0,0,86.9,30.44c-1.57,0-1.87.66-1.68,2,.48,3.47.9,6.94,1.42,10.41a3.61,3.61,0,0,0,1.84,2.6,44.44,44.44,0,0,1,9.78,8.37c2.7,2.9,5.54,2,6.51-1.72,1.11-4.32,3.84-7.09,7.71-7.29C115.76,44.62,118.68,43.44,122.26,42.23Zm-.84,3.2a9.61,9.61,0,0,0-1.2,0C111.6,46.53,105.39,56.52,108,65c.7,2.28,2.06,2.56,3.87,1.58a48.19,48.19,0,0,1,17.69-5.28c2-.22,3.52-1.33,5.1-2.41,1.21-.83,1.57-1.66.53-2.91-1.86-2.23-3.72-4.47-5.4-6.83C127.68,46.18,124.76,45.39,121.42,45.43ZM82.69,30.19c-1.47,1.6-1,2.85-1,4,.11,6.27-.08,12.4-3.7,18-1.68,2.6-.73,5.64-.18,8.5a6.22,6.22,0,0,0,4.56,4.88A19.3,19.3,0,0,0,98.42,64.1c1.29-.73,3-1.52,2.88-3.17s-1.73-2.1-3-2.62c-1.89-.76-3.85-1.42-4.53-3.6A10.06,10.06,0,0,0,89,49.07c-3.84-2.31-5.29-5.86-5.65-10.06C83.12,36.26,82.94,33.51,82.69,30.19Zm-23.79,19c.14-3.08-1.08-5.72-2.24-8.4-.7-1.62-1.42-1.42-2.68-.54A63.45,63.45,0,0,0,39.75,54c-1.23,1.6-1.15,2.22.82,3.11,4.78,2.15,5.39,3.51,5,8.6-.11,1.49.12,3,.13,4.49s1.25,1.93,2.17,2.4,1.31-.71,1.74-1.26c1.59-2,3-4.16,3.22-6.94A14.32,14.32,0,0,1,57,55,6.93,6.93,0,0,0,58.9,49.21Zm73.48,25.53c1.5,0,3,0,4.51,0s3,.15,4.51.14c.67,0,2,.53,1.68-.83a25.21,25.21,0,0,0-2.41-7c-.81-1.38-2.77.11-4.22-.08-.89-.12-1.82.06-2.7-.06-10.14-1.36-19,2.8-28,6.36a7.23,7.23,0,0,0-4.42,5.38c-.3,1.36-.44,2.71.85,3.5s2.35-.08,3.22-.92c3.54-3.41,7.9-4.94,12.61-5.67A95.1,95.1,0,0,1,132.38,74.74ZM68.26,51.05c-.34-2.64-.74-6.64-1.36-10.6-1.09-7.1-1.43-7.2-7.69-3.4-1.27.77-1.21,1.39-.63,2.64a60.21,60.21,0,0,1,2.84,7.59c1,3.37.64,6.5-2,9.22s-3.39,5.89-3.59,9.36c-.17,3-1.66,5.18-3.39,7.37-.5.64-1.69,1.21-1.06,2.14s1.79.77,2.81.7c1.19-.08,1.66-1,2.11-1.91a54.12,54.12,0,0,1,6.35-9.41C65.54,61.17,68.43,57.43,68.26,51.05ZM42,65.78c-.06-1.2-.05-2.41-.19-3.6-.28-2.43-2.39-2.78-4.15-3.32s-1.79,1.34-2.23,2.22A94.9,94.9,0,0,0,30.66,71.7c-.27.78-1.57,2.37-.31,3,4.12,2.21,8.24,4.67,13.22,4.32,1.23-.08,2.53-.43,3-1.61s-.68-2-1.39-2.72C42.79,72.22,41.31,69.4,42,65.78Zm91.13-2.52H139C137.69,59.62,137.69,59.62,133.09,63.26Z" transform="translate(-26.69 -28.2)"/><path class="cls-4" d="M263.89,102.69c-3.68,3.37-7.32,4.72-11.56,4-8-1.44-12.07-10.41-8.39-18.5,2.92-6.43,9.9-9.51,17.46-7.52,2,.52,2.66.36,2.51-1.85-.19-2.7.15-5.47-.76-8-.74-2.08.45-2.37,1.91-2.73,1.67-.42,3.2-.26,3.41,1.73a34.5,34.5,0,0,1-.07,6,214.74,214.74,0,0,0-.34,22.55,20.79,20.79,0,0,0,.54,4.16c.45,1.77,1.31,3.45-1.62,3.89C264.52,106.7,263.31,105.94,263.89,102.69Zm0-10.61c-.53-2.33,1.09-5.33-.77-6.89-2.32-2-5.65-1.86-8.69-1.23a9.09,9.09,0,0,0-6.94,8.14c-.57,5.06.85,8.52,4.14,10.14,3.5,1.71,7.74.79,10.78-2.16C264.85,97.7,263.15,94.71,263.87,92.08Z" transform="translate(-26.69 -28.2)"/><path class="cls-4" d="M510.65,82.91c3.18-1.72,6.31-3.06,9.84-2.47,4.29.72,7.41,3.06,8.83,7.24a13.74,13.74,0,0,1-2.38,13.87c-5.55,6.71-13.76,6.08-20.41,3.34-1.45-.6-.94-1.83-.89-2.85.4-9.52.88-19.05.09-28.57a5.86,5.86,0,0,0-.26-2.08c-1.35-2.67.45-3.09,2.35-3.44,2.24-.4,2.83.94,2.83,2.82C510.66,74.67,510.65,78.58,510.65,82.91Zm-.44,11.19h.09a40.58,40.58,0,0,1,0,4.81c-.28,2.3.9,3.18,2.88,3.74,4.23,1.19,8,.09,10.44-3.23s2.72-9,.45-12.18c-2-2.83-5.63-3.84-9.44-2.65s-4.25,1.8-4.38,6.51C510.18,92.1,510.21,93.1,510.21,94.1Z" transform="translate(-26.69 -28.2)"/><path class="cls-4" d="M567.34,82.55c.74.35,1.16-.25,1.67-.49,5.64-2.67,10.55-2.24,14.26,1.3s4.66,9.29,2.61,14.53c-2.56,6.53-9.5,10-17,8.61-6.7-1.26-6.64-1.25-6.34-8,.41-9.11,1-18.27-.45-27.32-.37-2.3.26-2.77,2.08-3.18,2.27-.52,3.22.38,3.22,2.6C567.33,74.61,567.34,78.59,567.34,82.55ZM567,93.84H567a40.59,40.59,0,0,1,0,4.81c-.31,2.55,1,3.51,3.21,4.09,3.51.9,6.6.34,9.14-2.23,3-3.06,3.6-6.87,2.52-10.87A7.51,7.51,0,0,0,573,84.19c-5,.81-6,2.08-6.06,7.25Z" transform="translate(-26.69 -28.2)"/><path class="cls-4" d="M421.43,75.94c0,2.1-.81,4.88.22,6.12,1.17,1.42,3.3-1,5.15-1.36,4.76-1,8.86,0,11.84,3.88,3.47,4.52,3.45,9.62,1,14.47-4.42,8.59-14.09,9.4-22.27,5.71-1.14-.52-.79-1.48-.72-2.34.71-9.11.45-18.23.35-27.35,0-1.19-.42-2.38-.43-3.57,0-.91-1.31-1.89-.1-2.67a4.39,4.39,0,0,1,4-.76c1.42.54,1.3,1.88,1.34,3.06.05,1.61,0,3.21,0,4.81Zm-.2,18h0c0,1.7.13,3.42,0,5.11-.19,2,.71,2.9,2.46,3.48,4.17,1.38,8.08.43,10.63-2.71s3.1-8.83,1-12.18c-1.88-3-5.4-4.2-9.26-3.15-4.33,1.18-4.8,1.83-4.84,6.74C421.22,92.12,421.23,93,421.23,93.93Z" transform="translate(-26.69 -28.2)"/><path class="cls-4" d="M486.44,79.66c8.05,0,13.75,5.45,13.72,13.13a14.63,14.63,0,0,1-14.64,14.44c-8.06,0-13.74-5.63-13.73-13.54C471.8,85.33,477.71,79.67,486.44,79.66Zm9.05,13.43c0-5.79-3.94-9.76-9.57-9.72s-9.49,4.14-9.54,10.19c0,5.7,3.95,9.74,9.6,9.7S495.53,99.08,495.49,93.09Z" transform="translate(-26.69 -28.2)"/><path class="cls-4" d="M351.51,79.66c8.1,0,13.69,5.36,13.66,13.13a14.52,14.52,0,0,1-14.59,14.44c-8,0-13.75-5.65-13.75-13.54C336.83,85.39,342.81,79.68,351.51,79.66Zm-.4,3.71c-5.68,0-9.54,4-9.61,10.07-.07,5.79,3.8,9.83,9.43,9.83s9.64-4.12,9.65-10S356.72,83.38,351.11,83.37Z" transform="translate(-26.69 -28.2)"/><path class="cls-4" d="M554.72,93.12c-.12,3.71-.43,7.48,1.19,11,.53,1.15-.09,1.43-.86,1.76-1.32.57-3,1.24-3.71-.38-.83-2-1.54-1.1-2.55-.45a10.84,10.84,0,0,1-7.18,1.75c-3.85-.45-6.47-2.71-7.22-6.21a7.92,7.92,0,0,1,4-8.93c3.09-1.86,6.5-2,9.92-1.74,2.48.23,2.7-.74,2.09-2.73-1.21-4-7.2-5.1-10.85-2-.83.7-1.5,2.36-2.76.66a2.5,2.5,0,0,1,.64-3.73c3.83-2.75,8.09-2.78,12.35-1.35,3.82,1.28,4.84,4.5,4.91,8.16C554.74,90.31,554.72,91.71,554.72,93.12Zm-4.37,3.25c-.26-.76,1.22-2.73-1.26-3.13a12.55,12.55,0,0,0-7.9.94c-3.19,1.64-3.52,6.15-.57,7.89,2.56,1.51,5.16,1,7.74-.2C550.7,100.82,550.74,98.93,550.35,96.37Z" transform="translate(-26.69 -28.2)"/><path class="cls-4" d="M461.29,104.05c-3,2.21-6.26,3.46-10.09,2.41-3.08-.84-5.19-2.71-5.78-5.88a7.86,7.86,0,0,1,3.26-8.46c3.24-2.29,6.94-2.6,10.67-2.22,2.61.27,2.61-1,2.15-2.76-1-3.82-7-5-10.67-2.21-.84.65-1.51,2.79-3,.89-1.26-1.63-.41-3.23,1.07-4.1a13.33,13.33,0,0,1,12.71-.65c3.59,1.64,4.15,5.1,4.19,8.69.07,4.88-.93,9.85,1.22,14.56.42.94-.28,1.24-.94,1.53-1.22.56-2.46,1-3.63-.1C462,105.29,462.13,104.35,461.29,104.05Zm.07-7.54c-.64-.55,1.55-2.67-.93-3.19a11.93,11.93,0,0,0-8.48,1,4.52,4.52,0,0,0-.73,7.4c2.41,1.84,5.06,1.4,7.7.34C461.24,101.14,462.09,99.49,461.36,96.51Z" transform="translate(-26.69 -28.2)"/><path class="cls-4" d="M294.55,93.81c-.06,3.21-.35,6.46.84,9.53.43,1.13,1,2-.63,2.58-1.36.48-3,1.11-3.68-.56s-1.34-1.1-2.33-.44a10.58,10.58,0,0,1-8,1.74,7.84,7.84,0,0,1-6.59-6.19,8.1,8.1,0,0,1,3.67-8.59c3.1-2,6.6-2.17,10.15-2,2.54.09,3.08-.71,2.19-3.14-1.3-3.54-7.21-4.43-10.66-1.64-.77.62-1.33,2.55-2.73.9a2.51,2.51,0,0,1,.61-3.94c4-2.69,8.33-2.79,12.64-1.11,3.72,1.44,4.55,4.77,4.55,8.4C294.54,90.8,294.55,92.31,294.55,93.81Zm-4.36,2.73c-.45-.72,1.34-2.78-1.09-3.25a11.89,11.89,0,0,0-8.46,1.1,4.51,4.51,0,0,0-.34,7.58c2.52,1.61,5.14,1.08,7.75,0C290.34,101,290.66,99.15,290.19,96.54Z" transform="translate(-26.69 -28.2)"/><path class="cls-4" d="M370.94,94.23c.27-4.21.8-8.44-.36-12.58-.16-.56-.39-1.23.46-1.46,1.31-.37,3-.58,3.6.63,1.17,2.34,2.38,1.11,3.73.49,8.31-3.79,14.71.16,15.13,9.22.21,4.68-.65,9.4.93,14,.57,1.66-1.47,1.49-2.48,1.74-1.5.38-2.94.14-3.1-1.78a43.59,43.59,0,0,1,0-5.11c.15-3.4.56-6.81-.08-10.21-.87-4.59-3.42-6.26-8-5.21-4.21,1-5,1.88-5.11,6.22-.14,4.71-.58,9.42.74,14.06.54,1.92-1.18,1.78-2.21,2-1.55.35-3.21.39-3.27-1.85C370.87,101.05,370.94,97.63,370.94,94.23Z" transform="translate(-26.69 -28.2)"/><path class="cls-4" d="M214.35,94.79a41.45,41.45,0,0,0,0-12c-.13-.79-1.5-1.89.07-2.54,1.24-.51,2.94-.63,3.61.55,1.17,2,2.24,1.28,3.73.59,8.3-3.89,14.59,0,15.09,9.14.25,4.68-.51,9.4.94,14.06.57,1.82-1.65,1.56-2.74,1.8-1.64.36-2.78-.28-2.76-2.18.05-3.61.14-7.22.16-10.84a24.13,24.13,0,0,0-.24-4.5c-.71-3.89-2.92-5.43-6.86-5-4.75.53-6.18,2-6.21,6.74s-.52,9.22.69,13.78c.54,2-1.43,1.75-2.52,2-1.53.33-2.93,0-3-1.94C214.3,101.2,214.35,98,214.35,94.79Z" transform="translate(-26.69 -28.2)"/><path class="cls-4" d="M202,103.13c-2.36,2.22-4.6,3.63-7.48,3.77-5.8.27-9.43-2.85-9.68-8.65-.13-2.9.07-5.82.11-8.74,0-2,.31-4.11-.45-6-.93-2.25.17-2.84,2-3.19,2-.39,3.14.41,3.11,2.5,0,1.91-.15,3.81-.25,5.72a41.49,41.49,0,0,0,.05,9.32c.66,4,2.26,5.47,5.6,5.25,3.7-.24,7.15-3.2,7.22-6.34.09-4.61.61-9.29-.85-13.76-.67-2.07.64-2.24,1.84-2.56,1.39-.39,3-.61,3.32,1.38a23,23,0,0,1,.15,3.9c.12,6.2-1,12.46.77,18.57.44,1.52-.69,1.52-1.38,1.73-1.3.4-2.81,1-3.63-.79A11.4,11.4,0,0,1,202,103.13Z" transform="translate(-26.69 -28.2)"/><path class="cls-4" d="M174.55,95.2v8.73c0,2.17-1.24,2.8-3.17,2.41-1.69-.34-3.16-.47-2.41-3.17,1.52-5.47.74-11.17.84-16.77,0-1.05-.37-1.43-1.4-1.35s-2.28,0-2.36-1.56,1.08-1.66,2.22-1.56c1.55.13,1.45-.9,1.5-1.94a17.43,17.43,0,0,1,1.68-7.27,8.12,8.12,0,0,1,9-4.6,2.91,2.91,0,0,1,2.73,2,2.41,2.41,0,0,1-.74,2.45c-1.09,1.14-1.93.3-2.9-.19-1.79-.9-3.17-.16-4.06,1.4-1.18,2.08-1,4.46-1.12,6.75,0,.8.4,1,1.12,1a4.41,4.41,0,0,1,1.2,0c1.44.31,3.91-1.06,3.83,1.86s-2.37,1.39-3.66,1.31c-2.2-.15-2.76.7-2.64,2.75.16,2.59,0,5.21,0,7.81Z" transform="translate(-26.69 -28.2)"/><path class="cls-4" d="M313.41,106.9c-7,0-12.12-4.17-12.78-10.26-.83-7.6,4.08-14.79,11.21-16.35a11.93,11.93,0,0,1,6.25-.1,2.36,2.36,0,0,1,1.79,3.23c-.42,1.61-1.3,1.76-2.92,1.22a8.61,8.61,0,0,0-10.19,3.77c-2.19,3.48-2,8.79.42,11.6s6.79,3.51,10.56,2c.75-.3,1.61-1.78,2.47-.26a2.62,2.62,0,0,1-.76,3.73C317.65,106.77,315.55,106.92,313.41,106.9Z" transform="translate(-26.69 -28.2)"/><path class="cls-4" d="M330.32,90.92c-.1,4.19-.51,8.45.74,12.51.62,2-.14,2.56-1.75,2.82s-3.68.75-3.87-1.83a56.64,56.64,0,0,1,.13-6.89c.26-5,.7-10-.64-14.91-.61-2.27,1.54-1.94,2.65-2.22,1.63-.42,3.12,0,3.1,2.13C330.66,85.32,330.45,88.12,330.32,90.92Z" transform="translate(-26.69 -28.2)"/><path class="cls-5" d="M178.87,128.64c.13,2.91-.32,5.84.43,8.71.37,1.45-.87,2.26-1.47,1.73-1.56-1.38-2.66-.25-4,.11a5.65,5.65,0,0,1-6.93-3.77,7,7,0,0,1,3.8-8.53,5.2,5.2,0,0,1,2.91-.53c3.63,1,3.54-1.08,3.07-3.5-.22-1.11-.72-2.31,1.11-2.33s1.44,1.34,1.4,2.4C179.15,124.84,179,126.74,178.87,128.64Zm-2.05,3.26c.36-1.92.07-3.77-3-3.77a4.65,4.65,0,0,0-4.84,5c0,2.69,1.5,4.41,3.87,4.39C175.51,137.46,176.81,135.77,176.82,131.9Z" transform="translate(-26.69 -28.2)"/><path class="cls-5" d="M423.75,129c-.15,2.9-.51,5.82.19,8.68a1.13,1.13,0,0,1-1.48,1.43c-1.52-1.77-2.8-.2-4.15.13a5.74,5.74,0,0,1-6.74-3.68,7,7,0,0,1,3.86-8.73,4.73,4.73,0,0,1,2.62-.49c4.14,1.18,3.46-1.44,3.17-3.82-.11-.87-.51-1.83,1-2s1.59.75,1.57,1.86C423.73,124.6,423.75,126.8,423.75,129Zm-2.41,3.25c0-3.59-.34-4.09-3-4.11a4.73,4.73,0,0,0-4.81,5c0,2.55,1.69,4.35,4,4.29C420.16,137.41,421.3,135.85,421.34,132.26Z" transform="translate(-26.69 -28.2)"/><path class="cls-5" d="M486.55,129c-.12,2.9-.51,5.81.16,8.68a1.16,1.16,0,0,1-1.7,1.41c-1.27-1.51-2.23-.39-3.33,0a5.73,5.73,0,0,1-7.22-3.16,7,7,0,0,1,3.48-8.91,5.35,5.35,0,0,1,3.18-.6c3.85,1.11,3.25-1.2,2.93-3.46-.14-1-.7-2.37,1.16-2.37s1.3,1.42,1.32,2.42C486.58,125,486.55,127,486.55,129Zm-2.44,3.4c.24-2,.51-4.15-2.74-4.22a4.72,4.72,0,0,0-5,4.79c-.12,2.58,1.42,4.46,3.73,4.55C482.68,137.58,484,136,484.11,132.36Z" transform="translate(-26.69 -28.2)"/><path class="cls-5" d="M245.31,135.15c-.1-2.4-.17-4.81-.34-7.21-.05-.79.08-1.8.88-1.28,1.75,1.16,3.23,0,4.81-.09a5.68,5.68,0,0,1,5.88,2.82,6.22,6.22,0,0,1-.12,6.59c-1.41,2.34-3.74,3.81-6.32,3.13-3.35-.89-2.86.91-2.67,2.85a11.9,11.9,0,0,0,.13,1.2c.21,1-.18,1.54-1.19,1.62s-1.37-.57-1.37-1.5c0-2.71,0-5.42,0-8.13Zm2.1-2.18c-.06,3.54.54,4.38,3.19,4.39a4.54,4.54,0,0,0,4.54-4.57,4.16,4.16,0,0,0-4-4.34C248.21,128.33,247.48,129.21,247.41,133Z" transform="translate(-26.69 -28.2)"/><path class="cls-5" d="M325.45,132.49a6.84,6.84,0,0,1-7.07,7c-4,0-6.65-2.58-6.64-6.53s3-6.86,7.18-6.81C322.78,126.17,325.44,128.76,325.45,132.49ZM318.66,128A4.63,4.63,0,0,0,314,132.9a4.5,4.5,0,0,0,4.5,4.67,4.57,4.57,0,0,0,4.62-4.86A4.45,4.45,0,0,0,318.66,128Z" transform="translate(-26.69 -28.2)"/><path class="cls-5" d="M577.39,139.47c-4,0-6.67-2.56-6.67-6.51s2.92-6.86,7.15-6.83a6.39,6.39,0,0,1,6.66,6.33A7.08,7.08,0,0,1,577.39,139.47Zm.18-11.44c-2.69,0-4.53,2.05-4.49,5a4.36,4.36,0,0,0,4.52,4.58,4.65,4.65,0,0,0,4.57-4.95A4.54,4.54,0,0,0,577.57,128Z" transform="translate(-26.69 -28.2)"/><path class="cls-5" d="M291.25,133.05a26,26,0,0,0,.54,4.45c.44,1.5-.78,1.9-1.27,1.54-1.36-1-2.36-.23-3.55.12a4.21,4.21,0,0,1-5.41-2.5c-.72-2.18.41-4.28,2.89-5.15.83-.3,1.76-.32,2.63-.55s2,.66,2.08-.83c0-1.32-1-1.86-2.2-2a3.72,3.72,0,0,0-2.59.59c-.57.36-1.19,1.5-1.81.14-.42-.91.31-1.48,1-1.91a5,5,0,0,1,7.84,4.33c0,.6,0,1.21,0,1.81Zm-3.48-.37c-2.21.19-4,.3-4.07,2.65a2,2,0,0,0,2.38,2.07c1.6-.07,3.17-.35,3.17-2.63C289.24,133.3,289,132.43,287.77,132.68Z" transform="translate(-26.69 -28.2)"/><path class="cls-5" d="M242.29,132.61a6.83,6.83,0,0,1-7.19,6.86,6.2,6.2,0,0,1-6.53-6.65c.07-4,3.08-6.79,7.31-6.69A6.2,6.2,0,0,1,242.29,132.61ZM235.58,128a4.61,4.61,0,0,0-4.71,4.74,4.49,4.49,0,0,0,4.29,4.79,4.77,4.77,0,0,0,.42-9.53Z" transform="translate(-26.69 -28.2)"/><path class="cls-5" d="M219.61,139.47c-4,0-6.59-2.6-6.56-6.58s3-6.84,7.2-6.76a6.26,6.26,0,0,1,6.52,6.41A6.92,6.92,0,0,1,219.61,139.47Zm4.87-6.59a4.56,4.56,0,1,0-9.11-.16,4.43,4.43,0,0,0,4.27,4.84A4.65,4.65,0,0,0,224.48,132.88Z" transform="translate(-26.69 -28.2)"/><path class="cls-5" d="M389.59,136.29a28.22,28.22,0,0,0,3.31-8c.24-1.21.68-2,1.88-1.69,1.68.4.76,1.63.43,2.4q-3,7.05-6.14,14c-.38.84-.83,2-2.2,1.17s-.61-1.63.08-2.43a4.14,4.14,0,0,0,.49-5.19c-1.29-2.37-2-5.08-3.81-7.11a1.5,1.5,0,0,1,.14-2.52c1.17-.94,1.81-.08,2.25.93C387.17,130.51,388.28,133.18,389.59,136.29Z" transform="translate(-26.69 -28.2)"/><path class="cls-5" d="M548.36,139.47c-4,0-6.63-2.58-6.61-6.55s3-6.85,7.18-6.79a6.28,6.28,0,0,1,6.57,6.37A7,7,0,0,1,548.36,139.47Zm.13-11.44a4.59,4.59,0,0,0-4.42,5.06,4.42,4.42,0,0,0,4.65,4.48,4.69,4.69,0,0,0,4.47-5A4.55,4.55,0,0,0,548.49,128Z" transform="translate(-26.69 -28.2)"/><path class="cls-5" d="M380.77,133.34c-.56,1.8,1.25,4.18-.16,5.37-1,.82-3.26,0-5.07.52a3.59,3.59,0,0,1-4.64-2.73c-.65-2.3.41-3.94,2.46-4.83a16,16,0,0,1,3.49-.69c.61-.11,1.53.4,1.68-.63a1.85,1.85,0,0,0-1.16-1.92,3.6,3.6,0,0,0-3.7.27c-.52.32-1,1.33-1.66.39s-.09-1.57.65-2a6.33,6.33,0,0,1,5.77-.38c1.83.74,2.29,2.35,2.34,4.15C380.79,131.66,380.77,132.46,380.77,133.34Zm-2.19,1c.39-1.05-.2-1.63-1.67-1.56-1.74.08-3.59.07-3.88,2.32-.21,1.63,1,2.39,2.43,2.34C377.09,137.34,378.71,137,378.58,134.3Z" transform="translate(-26.69 -28.2)"/><path class="cls-5" d="M434.19,130.75c-.85-2.81-2.24-3.39-4.86-2.05-.56.28-1.07,1.29-1.71.34s.15-1.75.95-2.14a6.33,6.33,0,0,1,5.82,0c1.77.91,2,2.62,2,4.41,0,2.09-.34,4.21.4,6.27.49,1.37-.78,1.91-1.35,1.45-1.27-1-2.15-.28-3.22.08-2.42.8-4.85-.17-5.57-2.17-.89-2.49.31-4.69,3.17-5.5A35.5,35.5,0,0,1,434.19,130.75Zm.06,3.68c.3-2-1.12-1.7-2.29-1.67-1.71.05-3.34.47-3.33,2.56,0,1.57,1.27,2.23,2.71,2.09C433,137.24,434.51,136.64,434.25,134.43Z" transform="translate(-26.69 -28.2)"/><path class="cls-5" d="M355.58,136.35c1.56-3.15,2.84-5.66,3.38-8.42.24-1.23.87-1.54,1.82-1.34,1.17.26.87,1.21.56,1.93q-3.15,7.3-6.39,14.56c-.43,1-1,1.87-2.28,1-1.06-.72-.65-1.43.06-2.2,1.64-1.76,1.71-3.58.48-5.71-1.34-2.32-2-5-3.91-7-.93-1-.23-1.76.42-2.29.92-.75,1.68-.23,2.11.75C353,130.36,354.19,133.1,355.58,136.35Z" transform="translate(-26.69 -28.2)"/><path class="cls-5" d="M328.31,132.37c0-1,0-2,0-3,0-1.61-1.33-4.69,2.45-2.18.37.24,1.28-.37,2-.56,3.73-1,6.13.62,6.42,4.49.15,2.1,0,4.23.27,6.31.12,1,0,1.5-1,1.7-1.2.25-1.69-.32-1.67-1.45,0-1.9.06-3.81.06-5.72s-.51-3.74-2.94-3.67c-2.14.06-3.62,1-3.35,3.54.19,1.89.05,3.81.27,5.7.13,1.08-.26,1.51-1.17,1.65s-1.48-.39-1.48-1.37v-5.42Z" transform="translate(-26.69 -28.2)"/><path class="cls-5" d="M408.45,133.32a21.52,21.52,0,0,1,0,2.41c-.19,1.5,1.81,5.41-2.65,2.49-.25-.16-1,.51-1.53.73-3.5,1.4-6.27-.34-6.47-4.13-.12-2.3,0-4.61-.19-6.91-.07-1,.26-1.27,1.08-1.38,1-.13,1.52.29,1.5,1.33,0,2.21-.12,4.42-.08,6.62,0,1.65.57,3.12,2.57,3,1.8-.14,3.39-.91,3.46-3a38.71,38.71,0,0,0-.2-6c-.14-1.08-.23-1.74,1.05-1.86s1.54.64,1.53,1.67v5.12Z" transform="translate(-26.69 -28.2)"/><path class="cls-5" d="M187.07,133.31c-.79.72-2.77-1.28-2.93.93-.14,1.82,1.46,2.73,3.17,3.06a15.1,15.1,0,0,0,1.78,0c.93.07,2.3-1.64,2.68.18.32,1.55-1.49,1.62-2.6,1.79-3.76.59-6.91-1.54-7.42-4.9-.61-4.07,1.44-7.36,5-8a5.41,5.41,0,0,1,3.79.59,3.8,3.8,0,0,1,2.08,4.28c-.35,1.75-1.89,1.89-3.28,2.09A15.34,15.34,0,0,1,187.07,133.31Zm0-1.44c1.07-.76,3.1.72,3.33-1.54.16-1.56-1.07-2.24-2.51-2.31-1.82-.1-3.35.81-3.5,2.53C184.2,132.58,186.22,131,187.05,131.87Z" transform="translate(-26.69 -28.2)"/><path class="cls-5" d="M494.3,133.3c-.86.56-2.67-1-2.89.66s1.2,2.89,3,3.25c.67.13,1.39,0,2.06.1.92.14,2.26-1.7,2.63.1s-1.6,1.73-2.77,1.87c-3.75.46-6.6-1.55-7.1-4.86-.63-4.13,1.31-7.35,4.88-8.07a5.38,5.38,0,0,1,4,.67,3.8,3.8,0,0,1,1.94,4.08c-.31,1.68-1.79,2-3.22,2.19A23.54,23.54,0,0,1,494.3,133.3Zm.45-1.45c.92-.77,3.06.75,3-1.72,0-1.61-1.31-2.11-2.71-2.11-1.81,0-3.33,1-3.28,2.7S493.71,131.18,494.75,131.85Z" transform="translate(-26.69 -28.2)"/><path class="cls-5" d="M264.47,133.3c-.85.56-2.66-1-2.88.7s1.22,2.87,3,3.22c.66.13,1.38,0,2.06.07.9.12,2.26-1.68,2.61.15s-1.63,1.71-2.8,1.85c-3.86.45-6.66-1.63-7.16-5.17-.55-3.86,1.49-7.06,4.93-7.77a5.46,5.46,0,0,1,4.05.67,3.79,3.79,0,0,1,1.94,4.06c-.29,1.68-1.76,2-3.19,2.21A23.54,23.54,0,0,1,264.47,133.3Zm.3-1.54c1.16-.48,3.17.68,3.16-1.64,0-1.58-1.32-2.1-2.72-2.11-1.82,0-3.34,1-3.28,2.72S263.86,131.18,264.77,131.76Z" transform="translate(-26.69 -28.2)"/><path class="cls-5" d="M520.76,132.76c0,1.59-.23,3.21.39,4.76.54,1.36-.73,1.94-1.28,1.51-1.37-1.07-2.33-.21-3.48.14a4.22,4.22,0,0,1-5.41-2.49c-.68-2.35.37-4.31,2.87-5.18.84-.29,1.77-.31,2.64-.53s2.07.61,2.11-.78c0-1.2-1-1.9-2.2-2.1a3.79,3.79,0,0,0-2.6.55c-.6.34-1.24,1.47-1.86.18-.43-.88.29-1.56,1-1.91a6.39,6.39,0,0,1,5.82,0c1.76.91,2,2.6,2,4.39C520.75,131.75,520.76,132.26,520.76,132.76Zm-3.45-.06c-2.4.12-4.2.32-4.27,2.62a2.07,2.07,0,0,0,2.42,2.09c1.79-.08,3.3-.57,3.28-2.95C518.72,132.85,517.94,132.64,517.31,132.7Z" transform="translate(-26.69 -28.2)"/><path class="cls-5" d="M456.85,133a11.11,11.11,0,0,0,.42,4.44c.44,1.05-.42,1.93-1,1.54-1.76-1.26-3.09.21-4.61.32-2.07.14-3.89-.43-4.54-2.58a3.85,3.85,0,0,1,2.41-5.12,19.52,19.52,0,0,1,3.2-.67c.68-.15,1.81.51,1.95-.63a2.09,2.09,0,0,0-1.73-2.15,3.7,3.7,0,0,0-3.16.51c-.52.33-1,1.28-1.69.33s0-1.58.74-2a6.26,6.26,0,0,1,5.77-.32c1.82.78,2.27,2.38,2.21,4.2C456.83,131.64,456.85,132.34,456.85,133Zm-3.66-.32c-2.12.1-3.92.3-4,2.57a2,2,0,0,0,2.39,2.11c1.6-.08,3.21-.32,3.28-2.58C454.87,133.33,454.52,132.47,453.19,132.72Z" transform="translate(-26.69 -28.2)"/><path class="cls-5" d="M301.45,128.54a4,4,0,0,0-4.29,2.22,4.38,4.38,0,0,0,.27,5.09,4,4,0,0,0,4.62,1.23c.65-.18,1.62-1,1.86.39.19,1.16-.83,1.6-1.68,1.76-2.71.5-5.29.16-7-2.27s-1.39-5.17.25-7.58a6.8,6.8,0,0,1,6.74-3.07c.83.09,1.6.53,1.35,1.58C303.24,129.35,302.15,128.42,301.45,128.54Z" transform="translate(-26.69 -28.2)"/><path class="cls-5" d="M209,128.5a3.89,3.89,0,0,0-4,2.25,4.46,4.46,0,0,0,.26,5.1,4,4,0,0,0,4.62,1.23c.67-.18,1.64-1,1.9.36.21,1.12-.82,1.5-1.67,1.78a6.65,6.65,0,0,1-7.36-2.71c-1.5-2.64-.6-6.59,2-8.67a6.87,6.87,0,0,1,4.43-1.6c1,0,2.22-.07,2.24,1.35C211.4,129.36,210.08,128.54,209,128.5Z" transform="translate(-26.69 -28.2)"/><path class="cls-5" d="M561,128.9a26.31,26.31,0,0,0,0,8.07c.24,1.1.33,2-1.11,2.18s-1.6-.92-1.58-2c.08-3.6.26-7.2.31-10.8a24,24,0,0,0-.34-3.87c-.13-.94-.41-1.8,1-2s1.77.55,1.76,1.75C561,124.5,561,126.7,561,128.9Z" transform="translate(-26.69 -28.2)"/><path class="cls-4" d="M349,77.21c-.76.05-1.25,0-1.57-.48s0-1,.32-1.31c2-2,3.94-4,6-5.91,1.14-1.05,2.6-1.43,3.74-.14s.67,2.71-.48,3.74A19.69,19.69,0,0,1,349,77.21Z" transform="translate(-26.69 -28.2)"/><path class="cls-5" d="M460.78,130.63c.09-2.8.54-5.62-.12-8.38-.24-1-.14-1.53.95-1.69s1.81.12,1.79,1.36c0,2-.13,4-.19,6a50.94,50.94,0,0,0,.18,9c.15,1,.47,2.08-1,2.24-1.78.19-1.54-1.16-1.56-2.22C460.76,134.83,460.78,132.73,460.78,130.63Z" transform="translate(-26.69 -28.2)"/><path class="cls-5" d="M504.34,139.47c-1,0-2.13,0-2.08-1.24s1-.89,1.79-.76a1.78,1.78,0,0,0,2-.88c.48-1-.09-1.73-.77-2.38s-1.38-1.16-2-1.82a2.92,2.92,0,0,1-.22-4.09,4.93,4.93,0,0,1,4.69-2.1,1,1,0,0,1,.86,1,1,1,0,0,1-.82,1.06c-3.94,1.42-4,1.45-1,4.38,1.19,1.18,2.26,2.36,1.39,4.18A4.61,4.61,0,0,1,504.34,139.47Z" transform="translate(-26.69 -28.2)"/><path class="cls-4" d="M565.07,130.59c.12-2.8.62-5.63-.12-8.39-.27-1,0-1.52,1.06-1.63s1.64.17,1.65,1.21c0,1.61-.06,3.22-.13,4.82-.15,3.51-.47,7,.17,10.51.18,1,.3,1.82-1,2-1.55.22-1.59-.87-1.61-1.9C565.05,135,565.07,132.8,565.07,130.59Z" transform="translate(-26.69 -28.2)"/><path class="cls-5" d="M524.74,133.35c-.08-1.7-.16-3.4-.23-5.1,0-.55-.52-1.22.21-1.6.57-.3,1.4-.22,1.62.32.69,1.67,1.34.7,2.09.13a2.33,2.33,0,0,1,2.53-.37,1.33,1.33,0,0,1,.76,1.74c-.21.68-.44,1.2-1.49.79-2.54-1-3.1,1.06-3.38,2.77a10.71,10.71,0,0,0,.35,5.35c.35,1,.1,1.5-.92,1.73s-1.81-.1-1.86-1.26c-.07-1.5,0-3,0-4.5Z" transform="translate(-26.69 -28.2)"/><path class="cls-5" d="M275.15,134.79a11.23,11.23,0,0,0,.39,2.62c.37,1.05.09,1.47-.88,1.69s-1.85,0-1.86-1.23c0-3.5.34-7,0-10.5-.11-1.27,1.39-1,1.64-.54,1,1.93,1.73.62,2.63.07a2.16,2.16,0,0,1,2.28-.15,1.45,1.45,0,0,1,.73,1.79,1.2,1.2,0,0,1-1,1C275.27,129.91,275,130.2,275.15,134.79Z" transform="translate(-26.69 -28.2)"/><path class="cls-5" d="M534.07,132.38a35.2,35.2,0,0,0-.24-4.48c-.24-1.47.81-1.89,1.37-1.18,1.26,1.61,2,.82,3.19.06a1.81,1.81,0,0,1,2.45.36,1.39,1.39,0,0,1,.17,1.67c-.61,1.15-1.27.17-2,.13-1.87-.11-2.52,1.3-2.84,2.84a12.13,12.13,0,0,0,.33,5.65c.36,1.33-.28,1.61-1.23,1.75s-1.47-.39-1.47-1.39c0-1.8,0-3.6,0-5.4Z" transform="translate(-26.69 -28.2)"/><path class="cls-4" d="M327.6,76c-1.91-.32-3.09-1.22-2.92-3.19a3.34,3.34,0,0,1,3.74-3.36,2.75,2.75,0,0,1,3,3.28C331.2,75,329.55,75.77,327.6,76Z" transform="translate(-26.69 -28.2)"/><path class="cls-5" d="M308.81,131.9a13,13,0,0,0,.15,5.38c.32,1.12,0,1.73-1.18,1.87s-1.67-.58-1.64-1.6c.09-3.3.65-6.59-.11-9.89-.24-1,.73-1,1.37-1.13a1.1,1.1,0,0,1,1.4,1.16C308.84,129.09,308.81,130.49,308.81,131.9Z" transform="translate(-26.69 -28.2)"/><path class="cls-5" d="M316.27,123.93c1.1-.81,2.19-1.62,3.3-2.42.62-.45,1.31-1.16,2-.31s.23,1.74-.55,2.24c-1.22.77-2.42,1.75-4,1.45Z" transform="translate(-26.69 -28.2)"/><path class="cls-5" d="M309.14,122.64a1.61,1.61,0,0,1-1.64,1.72c-1,.06-1.54-.37-1.56-1.36a1.54,1.54,0,0,1,1.6-1.76A1.37,1.37,0,0,1,309.14,122.64Z" transform="translate(-26.69 -28.2)"/><path class="cls-1" d="M110.69,85.25c9.59-7,20.44-7.94,31.78-6.81,1.73.17,1.75,1.29,2,2.44.82,10,.11,19.8-3.7,29.24A58.85,58.85,0,0,1,127.49,130a4.34,4.34,0,0,1-4,1.51c-5.67-.83-10.26-3.3-13.22-8.37-1.12-1.91-2.23-3.85-2.06-6.17a139.7,139.7,0,0,0-.67-22.22C107.23,91,107.87,87.82,110.69,85.25Z" transform="translate(-26.69 -28.2)"/><path class="cls-1" d="M28.89,85.09c-.89-2.93.38-5.56,1.05-8.38a18.09,18.09,0,0,1,4.66,2.93c4.7,3.43,9.57,3.57,14.59.8a3.87,3.87,0,0,1,2.53-.8c4.23.83,8.33,2,11.2,5.54a20.34,20.34,0,0,0,.53,4.17c3.07,9.14.66,18.08-1,27-1,5.34-4.45,9.18-8.57,12.36-3.36,2.58-7.25,2-10.07-1.08C32.87,115.57,28.06,101.32,28.89,85.09Z" transform="translate(-26.69 -28.2)"/><path class="cls-6" d="M70.28,83.29c-1.41-3.33-3.65-5.77-7.36-6.41-2.39-.4-2.38-1.66-1.53-3.43a37.51,37.51,0,0,1,4.78-8,20.29,20.29,0,0,0,4.51-17.69c-.77-4-1.35-8.1-2.13-12.14-.35-1.8,0-2.78,2-3.08,2.28-.32,4.5-1,6.75-1.48C78.49,30.81,79,31,79,32.55c-.29,6.57-1.28,12.94-4.08,19C72.15,57.41,72.58,63.07,77,68c1.94,2.18,2,4.17.51,6.52-2.12,3.43-3.25,7.31-4.65,11C70.9,86.06,71.43,83.73,70.28,83.29Z" transform="translate(-26.69 -28.2)"/><path class="cls-6" d="M122.26,42.23c-3.58,1.21-6.5,2.39-9.78,2.57-3.87.2-6.6,3-7.71,7.29-1,3.77-3.81,4.62-6.51,1.72a44.44,44.44,0,0,0-9.78-8.37,3.61,3.61,0,0,1-1.84-2.6c-.52-3.47-.94-6.94-1.42-10.41-.19-1.33.11-2,1.68-2A57,57,0,0,1,122.26,42.23Z" transform="translate(-26.69 -28.2)"/><path class="cls-6" d="M121.42,45.43c3.34,0,6.26.75,8.36,3.68,1.68,2.36,3.54,4.6,5.4,6.83,1,1.25.68,2.08-.53,2.91-1.58,1.08-3.14,2.19-5.1,2.41a48.19,48.19,0,0,0-17.69,5.28c-1.81,1-3.17.7-3.87-1.58-2.6-8.44,3.61-18.43,12.23-19.53A9.61,9.61,0,0,1,121.42,45.43Z" transform="translate(-26.69 -28.2)"/><path class="cls-6" d="M82.69,30.19c.25,3.32.43,6.07.67,8.82.36,4.2,1.81,7.75,5.65,10.06a10.06,10.06,0,0,1,4.75,5.64c.68,2.18,2.64,2.84,4.53,3.6,1.28.52,2.95,1.08,3,2.62s-1.59,2.44-2.88,3.17a19.3,19.3,0,0,1-16.06,1.41,6.22,6.22,0,0,1-4.56-4.88c-.55-2.86-1.5-5.9.18-8.5,3.62-5.57,3.81-11.7,3.7-18C81.66,33,81.22,31.79,82.69,30.19Z" transform="translate(-26.69 -28.2)"/><path class="cls-6" d="M58.9,49.21A6.93,6.93,0,0,1,57,55a14.32,14.32,0,0,0-4.11,9.44c-.23,2.78-1.63,4.89-3.22,6.94-.43.55-.91,1.69-1.74,1.26s-2.15-1-2.17-2.4-.24-3-.13-4.49c.38-5.09-.23-6.45-5-8.6-2-.89-2-1.51-.82-3.11A63.45,63.45,0,0,1,54,40.27c1.26-.88,2-1.08,2.68.54C57.82,43.49,59,46.13,58.9,49.21Z" transform="translate(-26.69 -28.2)"/><path class="cls-6" d="M132.38,74.74a95.1,95.1,0,0,0-14.41.79c-4.71.73-9.07,2.26-12.61,5.67-.87.84-2,1.67-3.22.92s-1.15-2.14-.85-3.5a7.23,7.23,0,0,1,4.42-5.38c9-3.56,17.9-7.72,28-6.36.88.12,1.81-.06,2.7.06,1.45.19,3.41-1.3,4.22.08a25.21,25.21,0,0,1,2.41,7c.32,1.36-1,.83-1.68.83-1.5,0-3-.11-4.51-.14S133.88,74.74,132.38,74.74Z" transform="translate(-26.69 -28.2)"/><path class="cls-6" d="M68.26,51.05c.17,6.38-2.72,10.12-5.58,13.7a54.12,54.12,0,0,0-6.35,9.41c-.45.89-.92,1.83-2.11,1.91-1,.07-2.24.15-2.81-.7s.56-1.5,1.06-2.14c1.73-2.19,3.22-4.42,3.39-7.37.2-3.47,1.11-6.78,3.59-9.36s3-5.85,2-9.22a60.21,60.21,0,0,0-2.84-7.59c-.58-1.25-.64-1.87.63-2.64,6.26-3.8,6.6-3.7,7.69,3.4C67.52,44.41,67.92,48.41,68.26,51.05Z" transform="translate(-26.69 -28.2)"/><path class="cls-6" d="M42,65.78c-.65,3.62.83,6.44,3.27,9,.71.73,2,1.48,1.39,2.72s-1.82,1.53-3,1.61c-5,.35-9.1-2.11-13.22-4.32-1.26-.67,0-2.26.31-3a94.9,94.9,0,0,1,4.73-10.62c.44-.88.44-2.76,2.23-2.22s3.87.89,4.15,3.32C41.91,63.37,41.9,64.58,42,65.78Z" transform="translate(-26.69 -28.2)"/><path class="cls-6" d="M133.09,63.26c4.6-3.64,4.6-3.64,5.91,0Z" transform="translate(-26.69 -28.2)"/><path class="cls-6" d="M263.87,92.08c-.72,2.63,1,5.62-1.48,8-3,3-7.28,3.87-10.78,2.16-3.29-1.62-4.71-5.08-4.14-10.14A9.09,9.09,0,0,1,254.41,84c3-.63,6.37-.72,8.69,1.23C265,86.75,263.34,89.75,263.87,92.08Z" transform="translate(-26.69 -28.2)"/><path class="cls-6" d="M510.21,94.1c0-1,0-2,0-3,.13-4.71.54-5.31,4.38-6.51s7.43-.18,9.44,2.65c2.27,3.2,2.07,8.78-.45,12.18s-6.21,4.42-10.44,3.23c-2-.56-3.16-1.44-2.88-3.74a40.58,40.58,0,0,0,0-4.81Z" transform="translate(-26.69 -28.2)"/><path class="cls-6" d="M567,93.84v-2.4C567,86.27,568,85,573,84.19a7.51,7.51,0,0,1,8.84,5.45c1.08,4,.51,7.81-2.52,10.87-2.54,2.57-5.63,3.13-9.14,2.23-2.25-.58-3.52-1.54-3.21-4.09a40.59,40.59,0,0,0,0-4.81Z" transform="translate(-26.69 -28.2)"/><path class="cls-6" d="M421.23,93.93c0-.9,0-1.81,0-2.71,0-4.91.51-5.56,4.84-6.74,3.86-1,7.38.15,9.26,3.15,2.1,3.35,1.64,8.92-1,12.18s-6.46,4.09-10.63,2.71c-1.75-.58-2.65-1.5-2.46-3.48.17-1.69,0-3.41,0-5.11Z" transform="translate(-26.69 -28.2)"/><path class="cls-6" d="M495.49,93.09c0,6-3.84,10.14-9.51,10.17s-9.64-4-9.6-9.7c.05-6,3.89-10.16,9.54-10.19S495.46,87.3,495.49,93.09Z" transform="translate(-26.69 -28.2)"/><path class="cls-6" d="M351.11,83.37c5.61,0,9.49,4,9.47,9.85s-4,10.06-9.65,10-9.5-4-9.43-9.83C341.57,87.4,345.43,83.36,351.11,83.37Z" transform="translate(-26.69 -28.2)"/><path class="cls-6" d="M550.35,96.37c.39,2.56.35,4.45-2,5.5-2.58,1.15-5.18,1.71-7.74.2-3-1.74-2.62-6.25.57-7.89a12.55,12.55,0,0,1,7.9-.94C551.57,93.64,550.09,95.61,550.35,96.37Z" transform="translate(-26.69 -28.2)"/><path class="cls-6" d="M461.36,96.51c.73,3-.12,4.63-2.44,5.57-2.64,1.06-5.29,1.5-7.7-.34a4.52,4.52,0,0,1,.73-7.4,11.93,11.93,0,0,1,8.48-1C462.91,93.84,460.72,96,461.36,96.51Z" transform="translate(-26.69 -28.2)"/><path class="cls-6" d="M290.19,96.54c.47,2.61.15,4.42-2.14,5.4-2.61,1.11-5.23,1.64-7.75,0a4.51,4.51,0,0,1,.34-7.58,11.89,11.89,0,0,1,8.46-1.1C291.53,93.76,289.74,95.82,290.19,96.54Z" transform="translate(-26.69 -28.2)"/><path class="cls-6" d="M176.82,131.9c0,3.87-1.31,5.56-4,5.58-2.37,0-3.89-1.7-3.87-4.39a4.65,4.65,0,0,1,4.84-5C176.89,128.13,177.18,130,176.82,131.9Z" transform="translate(-26.69 -28.2)"/><path class="cls-6" d="M421.34,132.26c0,3.59-1.18,5.15-3.82,5.22-2.33.06-4-1.74-4-4.29a4.73,4.73,0,0,1,4.81-5C421,128.17,421.37,128.67,421.34,132.26Z" transform="translate(-26.69 -28.2)"/><path class="cls-6" d="M484.11,132.36c-.15,3.65-1.43,5.22-4.05,5.12-2.31-.09-3.85-2-3.73-4.55a4.72,4.72,0,0,1,5-4.79C484.62,128.21,484.35,130.33,484.11,132.36Z" transform="translate(-26.69 -28.2)"/><path class="cls-6" d="M247.41,133c.07-3.76.8-4.64,3.72-4.52a4.16,4.16,0,0,1,4,4.34,4.54,4.54,0,0,1-4.54,4.57C248,137.35,247.35,136.51,247.41,133Z" transform="translate(-26.69 -28.2)"/><path class="cls-6" d="M318.66,128a4.45,4.45,0,0,1,4.47,4.68,4.57,4.57,0,0,1-4.62,4.86,4.5,4.5,0,0,1-4.5-4.67A4.63,4.63,0,0,1,318.66,128Z" transform="translate(-26.69 -28.2)"/><path class="cls-6" d="M577.57,128a4.54,4.54,0,0,1,4.6,4.59,4.65,4.65,0,0,1-4.57,4.95,4.36,4.36,0,0,1-4.52-4.58C573,130.08,574.88,128.05,577.57,128Z" transform="translate(-26.69 -28.2)"/><path class="cls-6" d="M287.77,132.68c1.2-.25,1.47.62,1.48,2.09,0,2.28-1.57,2.56-3.17,2.63a2,2,0,0,1-2.38-2.07C283.75,133,285.56,132.87,287.77,132.68Z" transform="translate(-26.69 -28.2)"/><path class="cls-6" d="M235.58,128a4.77,4.77,0,0,1-.42,9.53,4.49,4.49,0,0,1-4.29-4.79A4.61,4.61,0,0,1,235.58,128Z" transform="translate(-26.69 -28.2)"/><path class="cls-6" d="M224.48,132.88a4.65,4.65,0,0,1-4.84,4.68,4.43,4.43,0,0,1-4.27-4.84,4.56,4.56,0,1,1,9.11.16Z" transform="translate(-26.69 -28.2)"/><path class="cls-6" d="M548.49,128a4.55,4.55,0,0,1,4.7,4.49,4.69,4.69,0,0,1-4.47,5,4.42,4.42,0,0,1-4.65-4.48A4.59,4.59,0,0,1,548.49,128Z" transform="translate(-26.69 -28.2)"/><path class="cls-6" d="M378.58,134.3c.13,2.66-1.49,3-3.12,3.1-1.43,0-2.64-.71-2.43-2.34.29-2.25,2.14-2.24,3.88-2.32C378.38,132.67,379,133.25,378.58,134.3Z" transform="translate(-26.69 -28.2)"/><path class="cls-6" d="M434.25,134.43c.26,2.21-1.22,2.81-2.91,3-1.44.14-2.71-.52-2.71-2.09,0-2.09,1.62-2.51,3.33-2.56C433.13,132.73,434.55,132.47,434.25,134.43Z" transform="translate(-26.69 -28.2)"/><path class="cls-6" d="M187.05,131.87c-.83-.85-2.85.71-2.68-1.32.15-1.72,1.68-2.63,3.5-2.53,1.44.07,2.67.75,2.51,2.31C190.15,132.59,188.12,131.11,187.05,131.87Z" transform="translate(-26.69 -28.2)"/><path class="cls-6" d="M494.75,131.85c-1-.67-2.91.55-3-1.13s1.47-2.71,3.28-2.7c1.4,0,2.69.5,2.71,2.11C497.81,132.6,495.67,131.08,494.75,131.85Z" transform="translate(-26.69 -28.2)"/><path class="cls-6" d="M264.77,131.76c-.91-.58-2.79.63-2.84-1s1.46-2.73,3.28-2.72c1.4,0,2.72.53,2.72,2.11C267.94,132.44,265.93,131.28,264.77,131.76Z" transform="translate(-26.69 -28.2)"/><path class="cls-6" d="M517.31,132.7c.63-.06,1.41.15,1.43,1.76,0,2.38-1.49,2.87-3.28,2.95a2.07,2.07,0,0,1-2.42-2.09C513.11,133,514.91,132.82,517.31,132.7Z" transform="translate(-26.69 -28.2)"/><path class="cls-6" d="M453.19,132.72c1.33-.25,1.68.61,1.64,2.1-.07,2.26-1.68,2.5-3.28,2.58a2,2,0,0,1-2.39-2.11C449.27,133,451.07,132.82,453.19,132.72Z" transform="translate(-26.69 -28.2)"/></svg>